HIERARCHY
ROOT Pelvis
{
	OFFSET 0.000000 0.000000 0.000000
	CHANNELS 6 Xposition Yposition Zposition Xrotation Yrotation Zrotation
	JOINT LeftUpLeg_virtual
	{
		OFFSET 0.000000 0.000000 0.000000
		CHANNELS 3 Xrotation Yrotation Zrotation
		JOINT LeftUpLeg
		{
			OFFSET 8.479700 -4.795502 -0.379100
			CHANNELS 3 Xrotation Yrotation Zrotation
			JOINT LeftLeg
			{
				OFFSET 0.024144 -32.555107 0.112900
				CHANNELS 3 Xrotation Yrotation Zrotation
				JOINT LeftFoot
				{
					OFFSET -0.024144 -32.638630 -3.012600
					CHANNELS 3 Xrotation Yrotation Zrotation
					JOINT LeftToeBase
					{
						OFFSET 0.970200 -13.225400 11.864200
						CHANNELS 3 Xrotation Yrotation Zrotation
						End Site
						{
							OFFSET 0 0 0
						}
					}
				}
			}
		}
	}
	JOINT RightUpLeg_virtual
	{
		OFFSET 0.000000 0.000000 0.000000
		CHANNELS 3 Xrotation Yrotation Zrotation
		JOINT RightUpLeg
		{
			OFFSET -8.479700 -4.795502 -0.379100
			CHANNELS 3 Xrotation Yrotation Zrotation
			JOINT RightLeg
			{
				OFFSET -0.023144 -32.555092 0.112900
				CHANNELS 3 Xrotation Yrotation Zrotation
				JOINT RightFoot
				{
					OFFSET 0.023144 -32.638641 -3.012700
					CHANNELS 3 Xrotation Yrotation Zrotation
					JOINT RightToeBase
					{
						OFFSET -0.970200 -13.225400 11.864200
						CHANNELS 3 Xrotation Yrotation Zrotation
						End Site
						{
							OFFSET 0 0 0
						}
					}
				}
			}
		}
	}
	JOINT Hips_virtual
	{
		OFFSET 0.000000 0.000000 0.000000
		CHANNELS 3 Xrotation Yrotation Zrotation
		JOINT Hips
		{
			OFFSET -0.000000 -0.000000 -0.000000
			CHANNELS 3 Xrotation Yrotation Zrotation
			JOINT Spine
			{
				OFFSET 0.000000 7.722000 1.166200
				CHANNELS 3 Xrotation Yrotation Zrotation
				JOINT Spine1
				{
					OFFSET 0.000000 12.024101 0.248800
					CHANNELS 3 Xrotation Yrotation Zrotation
					JOINT Spine2
					{
						OFFSET 0.000000 11.502998 -0.491200
						CHANNELS 3 Xrotation Yrotation Zrotation
						JOINT Neck_virtual
						{
							OFFSET 0.000000 0.000000 0.000000
							CHANNELS 3 Xrotation Yrotation Zrotation
							JOINT Neck
							{
								OFFSET 0.000000 18.430702 -3.123100
								CHANNELS 3 Xrotation Yrotation Zrotation
								JOINT Head
								{
									OFFSET 0.000000 9.051102 1.034000
									CHANNELS 3 Xrotation Yrotation Zrotation
									End Site
									{
										OFFSET 0 0 0
									}
								}
							}
						}
						JOINT LeftShoulder_virtual
						{
							OFFSET 0.000000 0.000000 0.000000
							CHANNELS 3 Xrotation Yrotation Zrotation
							JOINT LeftShoulder
							{
								OFFSET 6.197800 13.665199 -4.064700
								CHANNELS 3 Xrotation Yrotation Zrotation
								JOINT LeftArm
								{
									OFFSET 7.778100 -0.187103 -1.709300
									CHANNELS 3 Xrotation Yrotation Zrotation
									JOINT LeftForeArm
									{
										OFFSET 22.049376 0.000000 0.000000
										CHANNELS 3 Xrotation Yrotation Zrotation
										JOINT LeftHand
										{
											OFFSET 23.009392 0.000000 0.000000
											CHANNELS 3 Xrotation Yrotation Zrotation
											End Site
											{
												OFFSET 0 0 0
											}
										}
									}
								}
							}
						}
						JOINT RightShoulder_virtual
						{
							OFFSET 0.000000 0.000000 0.000000
							CHANNELS 3 Xrotation Yrotation Zrotation
							JOINT RightShoulder
							{
								OFFSET -6.197800 13.665199 -4.064700
								CHANNELS 3 Xrotation Yrotation Zrotation
								JOINT RightArm
								{
									OFFSET -7.778100 -0.187103 -1.709300
									CHANNELS 3 Xrotation Yrotation Zrotation
									JOINT RightForeArm
									{
										OFFSET -22.049376 0.000000 0.000000
										CHANNELS 3 Xrotation Yrotation Zrotation
										JOINT RightHand
										{
											OFFSET -23.009392 0.000000 0.000000
											CHANNELS 3 Xrotation Yrotation Zrotation
											End Site
											{
												OFFSET 0 0 0
											}
										}
									}
								}
							}
						}
					}
				}
			}
		}
	}
}
MOTION
Frames: 7
Frame Time: 0.03333333
-2.189581 80.884628 2.525816 0.000000 0.000000 0.000000 -6.527206 7.438342 -0.725980 -16.549519 15.253908 12.653848 24.315130 0.828658 4.680387 -3.599710 -12.074611 -11.581860 0.000000 0.000000 0.000000 -6.527206 7.438342 -0.725980 0.792798 -10.058773 5.462661 19.419140 -9.735677 -6.909709 -12.977651 -16.005840 4.318013 0.000000 0.000000 0.000000 -6.527206 7.438342 -0.725980 0.000000 0.000001 0.000000 2.719454 1.592887 2.727557 2.229757 0.462798 2.709335 0.000000 0.000000 0.000000 1.815967 0.462782 2.663381 12.069586 -2.397796 -0.979291 0.000000 0.000000 0.000000 1.815967 0.462782 2.663381 0.980235 -16.729754 -12.817467 1.380167 -1.285203 -71.138701 0.000001 -0.000003 -0.000003 0.000000 0.000000 0.000000 1.815967 0.462782 2.663381 0.966137 8.437344 16.887346 28.204747 8.686313 58.059743 -0.000002 3.688157 -0.000012 0.000000 0.000000 0.000000 
-2.138339 80.935242 2.507236 0.000000 0.000000 0.000000 -6.289603 6.902694 -0.802114 -16.503699 15.286655 12.619639 24.060313 0.675943 4.604545 -3.510127 -11.408760 -11.508152 0.000000 0.000000 0.000000 -6.289603 6.902694 -0.802114 0.590093 -10.065127 5.312416 19.189577 -9.746584 -6.833349 -12.794430 -15.408615 4.347297 0.000000 0.000000 0.000000 -6.289603 6.902694 -0.802114 0.000000 0.000000 0.000000 2.695269 1.567806 2.709231 2.274832 0.425906 2.707982 0.000000 0.000000 0.000000 1.839811 0.425762 2.655625 11.829168 -2.244497 -0.934815 0.000000 0.000000 0.000000 1.839811 0.425762 2.655625 0.974911 -16.800882 -12.868813 1.435869 -0.692811 -71.334311 -0.000001 -0.000000 0.000012 0.000000 0.000000 0.000000 1.839811 0.425762 2.655625 0.974205 8.465967 16.811908 28.086918 7.872541 58.190418 -0.000010 3.162841 0.000023 0.000000 0.000000 0.000000 
-2.091401 80.983673 2.480700 0.000000 0.000000 0.000000 -6.052184 6.324396 -0.894832 -16.469451 15.315883 12.602044 23.822781 0.508465 4.540117 -3.429006 -10.691742 -11.429353 0.000000 0.000000 0.000000 -6.052184 6.324396 -0.894832 0.372691 -10.067642 5.172070 18.970003 -9.759463 -6.742594 -12.609753 -14.773855 4.365293 0.000000 0.000000 0.000000 -6.052184 6.324396 -0.894832 0.000000 0.000000 0.000000 2.675018 1.551675 2.695425 2.323626 0.402819 2.709165 0.000000 0.000000 0.000000 1.868223 0.402405 2.651738 11.576147 -2.092928 -0.883112 0.000000 0.000000 0.000000 1.868223 0.402405 2.651738 0.973020 -16.881875 -12.893317 1.489843 -0.193284 -71.539101 -0.000001 -0.000000 0.000002 0.000000 0.000000 0.000000 1.868223 0.402405 2.651738 0.974404 8.574766 16.795625 27.644525 6.868326 58.342124 -0.000006 2.537486 -0.000010 0.000000 0.000000 0.000000 
-2.049266 81.028679 2.447243 0.000000 0.000000 0.000000 -5.818061 5.715023 -1.004733 -16.452293 15.342577 12.605322 23.612109 0.332092 4.488423 -3.363549 -9.943552 -11.346702 0.000000 0.000000 0.000000 -5.818061 5.715023 -1.004733 0.144413 -10.064716 5.047083 18.764300 -9.774621 -6.637869 -12.427242 -14.114969 4.370843 0.000000 0.000000 0.000000 -5.818061 5.715023 -1.004733 0.000000 0.000000 0.000000 2.658158 1.541544 2.687150 2.374961 0.388697 2.715268 0.000000 0.000000 0.000000 1.900021 0.387847 2.652638 11.317116 -1.943498 -0.825332 0.000000 0.000000 0.000000 1.900021 0.387847 2.652638 0.974776 -16.968722 -12.889545 1.560688 0.185209 -71.747777 0.000001 0.000000 0.000000 0.000000 0.000000 0.000000 1.900021 0.387847 2.652638 0.968010 8.730540 16.828626 26.972489 5.818281 58.456106 0.000002 1.888797 -0.000004 0.000000 0.000000 0.000000 
-2.011813 81.069672 2.407894 0.000000 0.000000 0.000000 -5.589735 5.084347 -1.131245 -16.453598 15.368808 12.632058 23.430856 0.152495 4.448046 -3.316838 -9.182266 -11.259822 0.000000 0.000000 0.000000 -5.589735 5.084347 -1.131245 -0.089881 -10.056479 4.939439 18.572674 -9.791978 -6.518283 -12.248703 -13.440639 4.362967 0.000000 0.000000 0.000000 -5.589735 5.084347 -1.131245 0.000000 0.000000 0.000000 2.643814 1.534495 2.686622 2.427193 0.378845 2.725928 0.000000 0.000000 0.000000 1.933557 0.377381 2.658370 11.059856 -1.796444 -0.761483 0.000000 0.000000 0.000000 1.933557 0.377381 2.658370 0.979850 -17.054146 -12.860018 1.661559 0.422351 -71.953830 0.000000 0.000000 0.000003 0.000000 0.000000 0.000000 1.933557 0.377381 2.658370 0.957082 8.904108 16.894350 26.167819 4.868362 58.493849 -0.000008 1.292170 -0.000006 0.000000 0.000000 0.000000 
-1.978400 81.107086 2.363497 0.000000 0.000000 0.000000 -5.368238 4.441608 -1.271799 -16.472497 15.396512 12.681646 23.276552 -0.026478 4.415840 -3.287834 -8.421935 -11.167615 0.000000 0.000000 0.000000 -5.368238 4.441608 -1.271799 -0.326802 -10.044375 4.845495 18.394534 -9.811235 -6.378671 -12.075404 -12.756393 4.339326 0.000000 0.000000 0.000000 -5.368238 4.441608 -1.271799 0.000000 0.000000 0.000000 2.630925 1.528072 2.689532 2.478574 0.369388 2.740062 0.000000 0.000000 0.000000 1.967090 0.367154 2.667788 10.811848 -1.651989 -0.690783 0.000000 0.000000 0.000000 1.967090 0.367154 2.667788 0.987453 -17.130225 -12.810561 1.797757 0.509534 -72.149972 -0.000001 -0.000000 0.000007 0.000000 0.000000 0.000000 1.967090 0.367154 2.667788 0.944073 9.072989 16.974615 25.315519 4.137496 58.441359 -0.000001 0.810887 -0.000015 0.000000 0.000000 0.000000 
-1.948272 81.142014 2.314699 0.000000 0.000000 0.000000 -5.153425 3.798568 -1.420816 -16.504794 15.427111 12.748983 23.138903 -0.205771 4.387394 -3.269131 -7.672016 -11.068694 0.000000 0.000000 0.000000 -5.153425 3.798568 -1.420816 -0.561635 -10.030730 4.761725 18.222753 -9.831672 -6.219875 -11.904663 -12.070632 4.300171 0.000000 0.000000 0.000000 -5.153425 3.798568 -1.420816 0.000000 0.000000 0.000000 2.618585 1.520541 2.693641 2.527650 0.357655 2.755404 0.000000 0.000000 0.000000 1.999163 0.354537 2.678583 10.578962 -1.510493 -0.612296 0.000000 0.000000 0.000000 1.999163 0.354537 2.678583 0.994347 -17.190633 -12.748664 1.966112 0.450950 -72.328807 0.000001 -0.000003 -0.000008 0.000000 0.000000 0.000000 1.999163 0.354537 2.678583 0.931289 9.222947 17.053488 24.477320 3.700234 58.305753 -0.000001 0.487913 -0.000012 0.000000 0.000000 0.000000 
